HIERARCHY
ROOT pelvis
{
  OFFSET 0 100 0
  CHANNELS 6 Xposition Yposition Zposition Zrotation Xrotation Yrotation
  JOINT pelvis_right_femur
  {
    OFFSET -10.78128 -3.44521 -0.5502486
    CHANNELS 3 Zrotation Xrotation Yrotation
    JOINT right_femur_tibia
    {
      OFFSET -0.8047443 -44.0398 -0.1307829
      CHANNELS 3 Zrotation Xrotation Yrotation
      JOINT right_tibia_foot
      {
        OFFSET 3.006224 -47.83518 -5
        CHANNELS 3 Zrotation Xrotation Yrotation
        End Site
        {
          OFFSET 0 -5 15
        }
      }
    }
  }
  JOINT pelvis_left_femur
  {
    OFFSET 10.78128 -3.44521 -0.5502486
    CHANNELS 3 Zrotation Xrotation Yrotation
    JOINT left_femur_tibia
    {
      OFFSET 0.8047443 -44.0398 -0.1307829
      CHANNELS 3 Zrotation Xrotation Yrotation
      JOINT left_tibia_foot
      {
        OFFSET -4.370144 -48.10324 -4.275266
        CHANNELS 3 Zrotation Xrotation Yrotation
        End Site
        {
          OFFSET 0 -5 15
        }
      }
    }
  }
  JOINT pelvis_spine1
  {
    OFFSET 0 6.468898 -3.129235
    CHANNELS 3 Zrotation Xrotation Yrotation
    JOINT spine1
    {
      OFFSET 0 23.15396 4.99043
      CHANNELS 3 Zrotation Xrotation Yrotation
      JOINT spine2
      {
        OFFSET 0 20.79997 -5.064912
        CHANNELS 3 Zrotation Xrotation Yrotation
        JOINT neck
        {
          OFFSET 0 14.38658 9.616178
          CHANNELS 3 Zrotation Xrotation Yrotation
          End Site
          {
            OFFSET 0 20 0
          }
        }
      }
      JOINT right_manubrium
      {
        OFFSET -5.722621 16.35077 3.967754
        CHANNELS 3 Zrotation Xrotation Yrotation
        JOINT right_clavicle
        {
          OFFSET -13.16364 1.694482 -4.693211
          CHANNELS 3 Zrotation Xrotation Yrotation
          JOINT right_humerus
          {
            OFFSET -28.5034 -0.3100689 -2.792744
            CHANNELS 3 Zrotation Xrotation Yrotation
            JOINT right_radius
            {
              OFFSET -25.15693 0.02248979 -1.271978
              CHANNELS 3 Zrotation Xrotation Yrotation
              End Site
              {
                OFFSET -15 0 0
              }
            }
          }
        }
      }
      JOINT left_manubrium
      {
        OFFSET 5.722621 16.35077 3.967754
        CHANNELS 3 Zrotation Xrotation Yrotation
        JOINT left_clavicle
        {
          OFFSET 13.16364 1.694482 -4.693211
          CHANNELS 3 Zrotation Xrotation Yrotation
          JOINT left_humerus
          {
            OFFSET 29.39168 -1.063119 -2.237045
            CHANNELS 3 Zrotation Xrotation Yrotation
            JOINT left_radius
            {
              OFFSET 24.59957 -0.9528479 0.9047498
              CHANNELS 3 Zrotation Xrotation Yrotation
              End Site
              {
                OFFSET 15 -0 -0
              }
            }
          }
        }
      }
    }
  }
}
MOTION
Frames: 15
Frame Time: 0.0416666666667
0 103.5113 0 1.87055 -2.843746 0.06955639 1.983074 -10.35067 9.007109 -0 38.66756 -0 -5.384016 -16.84697 -4.914868 -7.500515 10.59158 -22.88197 -0 5.583573 -0 7.980353 -15.25043 26.34947 -2.14886 -3.170588 5.582333 2.709195 9.549321 -7.41581 1.330406 21.9738 6.217028 2.154742 -26.61633 10.03817 5.710093 -19.55185 10.47292 85.76387 34.95273 -19.47023 -0 0 15.21257 -5.536066 7.207677 3.210664 5.882347 -21.24998 -0.8226061 -96.17401 26.56855 25.4855 0 0 -13.31657 10.98848 17.2384 2.568336
0.3179083 103.5688 1.513939 1.61849 -1.85444 0.05050874 2.511939 -13.19233 9.304382 -0 38.38597 -0 -4.943163 -16.64412 -4.619655 -7.428483 10.97062 -23.21879 -0 5.268991 -0 7.56773 -16.40404 26.34568 -2.194741 -3.223619 5.642512 2.674627 9.499101 -7.357521 1.323683 22.0933 6.137184 2.05574 -26.60932 10.03544 5.64757 -19.61128 10.3844 85.67968 34.97214 -19.29945 -0 0 15.30532 -5.48147 7.049254 3.212187 5.814901 -21.24145 -0.8093493 -96.35813 26.81656 25.76278 0 0 -13.09222 10.954 17.38692 2.648513
0.5768736 103.5566 3.029881 1.129397 -0.7729998 0.07358263 3.380934 -17.1619 9.131734 -0 37.04674 -0 -4.976765 -15.90295 -4.094907 -7.143161 11.44169 -23.29649 -0 5.071916 -0 6.886198 -18.00505 26.06045 -2.186961 -3.035213 5.485023 2.900832 9.786822 -7.735758 1.122686 21.74073 6.311987 2.276768 -26.74931 9.686895 5.549525 -19.49592 10.71548 86.44827 34.8905 -20.25363 -0 0 14.39557 -6.121113 7.163558 3.762735 5.824045 -21.67437 -1.106122 -95.28507 26.41358 24.67517 0 0 -14.89324 10.68679 15.95843 3.006853
0.7944193 103.4314 4.671625 0.6030802 0.08015481 0.1440012 4.234414 -20.88913 8.590934 -0 34.88651 -0 -5.341114 -14.7588 -3.509532 -6.783685 11.83899 -22.97905 -0 5.041066 -0 6.235217 -19.44404 25.50918 -2.202386 -2.946712 5.352344 3.096104 9.961681 -8.025429 0.9901488 21.49871 6.457445 2.405962 -26.97555 9.542821 5.492669 -19.44864 10.93464 87.04238 34.82395 -21.03609 -0 0 13.78835 -6.35332 7.136112 4.02734 5.833717 -21.98488 -1.324278 -94.62129 26.20334 24.00473 0 0 -16.17703 10.62964 15.04107 3.150961
0.9885305 103.1645 6.579862 0.0329913 1.02499 0.266236 5.136484 -24.95406 7.859717 -0 31.66202 -0 -5.733131 -13.09173 -2.807752 -6.400206 12.23339 -22.25899 -0 5.098235 -0 5.607861 -20.89781 24.63894 -2.216531 -2.843498 5.211114 3.287432 10.14261 -8.320917 0.8499507 21.2516 6.603741 2.543218 -27.16489 9.370412 5.421448 -19.37942 11.15712 87.66047 34.75917 -21.82325 -0 0 13.13433 -6.670553 7.144337 4.344014 5.845055 -22.31348 -1.556116 -93.89045 25.96288 23.25402 0 0 -17.52982 10.54321 14.06368 3.321589
1.180541 102.7414 8.885125 -0.4712102 1.981489 0.4542834 5.943148 -28.73582 7.091852 -0 27.71859 -0 -6.037721 -11.06228 -2.121686 -6.093361 12.614 -21.19635 -0 5.378158 -0 5.19744 -22.08324 23.58177 -2.237652 -2.755551 5.071189 3.472181 10.30248 -8.602365 0.7174149 21.02612 6.744702 2.663231 -27.36102 9.226571 5.34757 -19.31745 11.35732 88.2598 34.70138 -22.58052 -0 0 12.5169 -6.943207 7.131336 4.631289 5.855409 -22.62965 -1.780753 -93.21057 25.75573 22.55525 0 0 -18.82041 10.48734 13.15597 3.463254
1.385454 102.1718 11.71603 -0.8991728 2.976436 0.73199 6.641004 -32.10112 6.357494 -0 23.31687 -0 -6.213619 -8.708635 -1.499306 -5.8815 13.04964 -19.88735 -0 6.062794 -0 4.795521 -23.00452 22.28854 -2.253955 -2.664679 4.935105 3.634501 10.45029 -8.860312 0.5944514 20.81783 6.875151 2.779535 -27.50697 9.080345 5.27348 -19.24091 11.54004 88.81996 34.64991 -23.2708 -0 0 11.92634 -7.253255 7.154654 4.924674 5.870018 -22.92705 -1.993513 -92.54639 25.53842 21.85643 0 0 -20.03363 10.41899 12.30074 3.604164
1.608514 101.4968 15.16793 -1.250457 3.850229 1.116119 7.210289 -34.5901 5.703146 -0 19.10658 -0 -6.389069 -6.215177 -1.032805 -5.744912 13.57503 -18.48017 -0 7.48347 -0 4.228139 -23.47914 20.77579 -2.266921 -2.574473 4.809276 3.76963 10.58568 -9.088867 0.4820562 20.63479 6.988944 2.887056 -27.59914 8.930872 5.200969 -19.15518 11.70113 89.3278 34.6028 -23.8791 -0 0 11.37804 -7.597595 7.206177 5.220259 5.884422 -23.20147 -2.192269 -91.91918 25.32679 21.18562 0 0 -21.13392 10.33071 11.51744 3.753539
1.846527 100.8023 19.29673 -1.579477 4.473483 1.612646 7.713073 -35.92522 5.196784 -0 15.75923 -0 -6.690972 -3.815394 -0.7654682 -5.608291 14.17275 -17.10884 -0 9.990158 -0 3.208925 -23.3286 18.98404 -2.272335 -2.482084 4.70203 3.865047 10.71028 -9.27563 0.3846382 20.4843 7.077289 2.985775 -27.60972 8.768623 5.135703 -19.05711 11.83716 89.75421 34.5566 -24.36877 -0 0 10.89213 -7.999492 7.302849 5.521475 5.896919 -23.44082 -2.370028 -91.34452 25.11842 20.5569 0 0 -22.06378 10.2007 10.83055 3.926887
2.09129 100.2163 24.09287 -1.953499 4.692745 2.194647 8.237242 -35.87398 4.914294 -0 13.91694 -0 -7.244889 -1.89395 -0.7162924 -5.366095 14.70261 -15.88042 -0 13.91637 -0 1.589366 -22.28806 16.9258 -2.270339 -2.388965 4.623855 3.911639 10.82634 -9.410555 0.3039374 20.37523 7.131375 3.07211 -27.52459 8.586871 5.081662 -18.95249 11.94516 90.07403 34.50646 -24.71007 -0 0 10.49225 -8.470583 7.443405 5.830376 5.901412 -23.63596 -2.523539 -90.84647 24.92587 20.00352 0 0 -22.76944 10.01016 10.26042 4.142839
2.336796 99.89609 29.46987 -2.418037 4.440859 2.78758 8.837907 -34.39364 4.904107 -0 13.84859 -0 -8.059263 -0.908214 -0.8632731 -4.92805 14.86849 -14.83622 -0 19.45455 -0 -0.5911378 -20.14433 14.69463 -2.261821 -2.295937 4.587338 3.899235 10.93642 -9.481707 0.2411512 20.31605 7.142484 3.142957 -27.32888 8.377668 5.041712 -18.85004 12.02308 90.25716 34.44796 -24.86533 -0 0 10.20717 -9.028791 7.626407 6.154591 5.890539 -23.77502 -2.649794 -90.44889 24.76069 19.5632 0 0 -23.19601 9.737844 9.821807 4.422513
2.58585 99.98496 35.2644 -2.933968 3.740148 3.263827 9.432384 -31.5847 5.089577 -0 15.21992 -0 -9.026545 -1.222219 -1.146324 -4.287804 14.23424 -13.92704 -0 26.57211 -0 -2.98915 -16.87166 12.51866 -2.251923 -2.204658 4.606524 3.819604 11.0428 -9.47767 0.1941377 20.31388 7.104322 3.194526 -27.01653 8.133805 5.013843 -18.76608 12.07077 90.27533 34.38023 -24.79473 -0 0 10.06824 -9.69632 7.840794 6.512185 5.853946 -23.84651 -2.74959 -90.17136 24.63801 19.28047 0 0 -23.30576 9.364989 9.51181 4.787968
2.851525 100.5573 41.26861 -3.337499 2.701133 3.476492 9.770781 -27.63031 5.237436 -0 17.03818 -0 -9.948287 -2.823703 -1.453718 -3.572749 12.32888 -13.01383 -0 34.94914 -0 -5.036899 -12.8023 10.69028 -2.251066 -2.116274 4.696179 3.665703 11.1455 -9.385752 0.1574175 20.37375 7.014804 3.223131 -26.58886 7.849857 4.989236 -18.72434 12.09014 90.09916 34.31087 -24.44859 -0 0 10.11035 -10.50652 8.069628 6.937618 5.77861 -23.83611 -2.827048 -90.0226 24.5706 19.20056 0 0 -23.08543 8.878336 9.304442 5.256656
3.148362 101.5757 47.28744 -3.360688 1.450656 3.329185 9.534124 -22.68552 5.0375 -0 17.97877 -0 -10.61237 -5.133718 -1.623707 -3.00517 8.813476 -11.92989 -0 43.94239 -0 -6.154692 -8.663482 9.471878 -2.27721 -2.030975 4.870372 3.431989 11.23944 -9.190457 0.1224357 20.4983 6.878364 3.225327 -26.05605 7.525442 4.951196 -18.7562 12.08538 89.69442 34.26183 -23.75988 -0 0 10.37305 -11.50636 8.291238 7.485463 5.648231 -23.72228 -2.888934 -89.99547 24.56451 19.36487 0 0 -22.55248 8.276312 9.148221 5.832044
3.476852 102.8892 53.18922 -2.767427 0.08799779 2.850901 8.557178 -16.87226 4.338822 -0 17.04909 -0 -10.82316 -7.200923 -1.514125 -2.744796 3.63268 -10.60344 -0 52.47305 -0 -6.107061 -5.391483 9.040084 -2.35484 -1.946813 5.140079 3.113989 11.31006 -8.870344 0.081599 20.68808 6.707356 3.198945 -25.43382 7.170731 4.878002 -18.89598 12.062 89.01205 34.27178 -22.63271 -0 0 10.90256 -12.75158 8.487681 8.223934 5.444721 -23.46705 -2.9388 -90.06789 24.61026 19.80379 0 0 -21.74407 7.575594 8.979578 6.489757
